<?xml version="1.0" encoding="utf-8"?>
<!-- Generator: Adobe Illustrator 21.1.0, SVG Export Plug-In . SVG Version: 6.00 Build 0)  -->
<svg version="1.1" id="Capa_1" xmlns="http://www.w3.org/2000/svg" xmlns:xlink="http://www.w3.org/1999/xlink" x="0px" y="0px"
	 viewBox="0 0 396 396" style="enable-background:new 0 0 396 396;" xml:space="preserve">
<style type="text/css">
	.st0{fill:#638591;}
	.st1{fill:#99B5C4;}
	.st2{fill:#4D4D4D;}
	.st3{fill:#EF7954;}
	.st4{fill:#F9ED82;}
	.st5{fill:#808080;}
	.st6{fill:#666666;}
	.st7{fill:#CCCCCC;}
	.st8{fill:#999999;}
	.st9{fill:#E6E6E6;}
	.st10{fill:#B3B3B3;}
	.st11{fill:#D3674A;}
	.st12{opacity:0.49;fill:#F2F2F2;enable-background:new    ;}
</style>
<g>
	<rect x="258.5" y="67.5" class="st0" width="80.7" height="33.3"/>
	<rect x="339.1" y="67.5" class="st1" width="22.1" height="33.3"/>
	<rect x="15" y="67.5" class="st2" width="168" height="222"/>
	<path class="st3" d="M247.5,128.2h-7v-7.3c0-8.7-7-15.7-15.7-15.7h-35.6c-12.5,0-22.7-10.2-22.7-22.7v-15h7v15
		c0,8.7,7,15.7,15.7,15.7h35.6c12.5,0,22.7,10.2,22.7,22.7V128.2z"/>
	<path class="st4" d="M264.5,128.2h-7v-21.3c0-8.7-7-15.7-15.7-15.7h-2.2c-12.5,0-22.7-10.2-22.7-22.7v-15h7v15
		c0,8.7,7,15.7,15.7,15.7h2.2c12.5,0,22.7,10.2,22.7,22.7V128.2z"/>
	<rect x="321.9" y="100.8" class="st5" width="13.3" height="59.3"/>
	<rect x="275.7" y="100.8" class="st6" width="46.3" height="59.3"/>
	<path class="st7" d="M298.8,148.9h-195c-3.1,0-5.7-2.5-5.7-5.7l0,0c0-3.1,2.5-5.7,5.7-5.7h195c3.1,0,5.7,2.5,5.7,5.7l0,0
		C304.5,146.4,301.9,148.9,298.8,148.9z"/>
	<rect y="304.5" class="st5" width="396" height="23.1"/>
	<rect x="198" y="304.5" class="st8" width="198" height="23.1"/>
	<polygon class="st5" points="55.5,327.6 0,327.6 11.6,369 43.9,369 	"/>
	<polygon class="st5" points="223.9,327.6 168.4,327.6 179.9,369 212.3,369 	"/>
	<polygon class="st5" points="396,327.6 340.5,327.6 352.1,369 384.4,369 	"/>
	<rect x="52.7" y="265.6" class="st9" width="290.7" height="23.9"/>
	<rect x="52.7" y="265.6" class="st10" width="136.8" height="23.9"/>
	<polygon class="st8" points="198,327.6 198,369 212.3,369 223.9,327.6 	"/>
	<polygon class="st6" points="29.6,327.6 29.6,369 43.9,369 55.5,327.6 	"/>
	<polygon class="st8" points="370.1,327.6 370.1,369 384.4,369 396,327.6 	"/>
	<rect x="58.7" y="67.5" class="st0" width="80.7" height="33.3"/>
	<rect x="122.1" y="100.8" class="st5" width="13.3" height="59.3"/>
	<rect x="75.9" y="100.8" class="st6" width="46.3" height="59.3"/>
	<rect x="139.3" y="67.5" class="st1" width="22.1" height="33.3"/>
	<rect x="245.5" y="128.2" class="st8" width="40.7" height="36.7"/>
	<rect x="228.8" y="128.2" class="st5" width="20.3" height="36.7"/>
	<path class="st7" d="M237.5,148.9h-12.3c-3.1,0-5.7-2.5-5.7-5.7l0,0c0-3.1,2.5-5.7,5.7-5.7h12.3c3.1,0,5.7,2.5,5.7,5.7l0,0
		C243.1,146.4,240.6,148.9,237.5,148.9z"/>
	<g>
		<rect x="240" y="164.9" class="st1" width="35.5" height="28.8"/>
		<rect x="240" y="164.9" class="st0" width="15" height="28.8"/>
	</g>
	<rect x="251.7" y="193.7" class="st1" width="12" height="10"/>
	<polygon class="st3" points="306,265.6 90,265.6 116,229.2 280,229.2 	"/>
	<polygon class="st11" points="198,229.2 198,265.6 90,265.6 116,229.2 	"/>
	<path class="st3" d="M241.4,232.7H198v-7h43.4c6.8,0,12.2-5.5,12.2-12.2v-9.8h7v9.8C260.6,224.1,252,232.7,241.4,232.7z"/>
	<g>
		
			<image style="overflow:visible;" width="271" height="350" xlink:href="954BC9102E29E72C.png"  transform="matrix(1 0 0 1 161 -8.993)">
		</image>
	</g>
	<path class="st5" d="M0,27v277.5h198V27H0z M183,289.5H15v-222h168V289.5z"/>
	<g>
		<polygon class="st12" points="15,67.5 15,170.9 118.4,67.5 		"/>
		<polygon class="st12" points="93.1,289.5 183,289.5 183,199.6 		"/>
		<polygon class="st12" points="15,274.6 15,289.5 46.3,289.5 183,152.8 183,106.6 		"/>
	</g>
</g>
</svg>
